<?xml version="1.0" encoding="UTF-8" standalone="no"?>
<svg
   xmlns:dc="http://purl.org/dc/elements/1.1/"
   xmlns:cc="http://creativecommons.org/ns#"
   xmlns:rdf="http://www.w3.org/1999/02/22-rdf-syntax-ns#"
   xmlns:svg="http://www.w3.org/2000/svg"
   xmlns="http://www.w3.org/2000/svg"
   xmlns:sodipodi="http://sodipodi.sourceforge.net/DTD/sodipodi-0.dtd"
   xmlns:inkscape="http://www.inkscape.org/namespaces/inkscape"
   viewBox="0 0 64 64"
   id="svg2"
   version="1.1"
   inkscape:version="0.91 r13725"
   sodipodi:docname="tx_srsendcard_card.svg"
   inkscape:export-filename="C:\Users\Utilisateur\Desktop\TYPO3 SVN\sr_sendcard\Resources\Public\Images\tx_srsendcard_card.png"
   inkscape:export-xdpi="88.615387"
   inkscape:export-ydpi="88.615387">
  <metadata
     id="metadata16">
    <rdf:RDF>
      <cc:Work
         rdf:about="">
        <dc:format>image/svg+xml</dc:format>
        <dc:type
           rdf:resource="http://purl.org/dc/dcmitype/StillImage" />
        <dc:title />
      </cc:Work>
    </rdf:RDF>
  </metadata>
  <defs
     id="defs14" />
  <sodipodi:namedview
     pagecolor="#ffffff"
     bordercolor="#666666"
     borderopacity="1"
     objecttolerance="10"
     gridtolerance="10"
     guidetolerance="10"
     inkscape:pageopacity="0"
     inkscape:pageshadow="2"
     inkscape:window-width="1366"
     inkscape:window-height="715"
     id="namedview12"
     showgrid="false"
     inkscape:zoom="3.6875"
     inkscape:cx="-13.423728"
     inkscape:cy="30.309815"
     inkscape:window-x="-8"
     inkscape:window-y="-8"
     inkscape:window-maximized="1"
     inkscape:current-layer="svg2" />
  <path
     d="M0 0h64v64H0z"
     id="path4"
     style="stroke:#ffffff;stroke-opacity:1"
     fill="#D04139" />
  <path
     style="fill:#ffffff;stroke:#ffffff;stroke-width:2.37534451;stroke-miterlimit:4;stroke-dasharray:none;stroke-opacity:1"
     d="m 60.391908,4.6236714 -56.7838215,0 0,54.4814706 56.7838215,0 0,-54.4814706 z m -1.957972,51.4546256 -52.8677219,0 0,-48.4277831 52.8677219,0 0,48.4277831 z"
     id="path7"
     inkscape:connector-curvature="0" />
  <rect
     style="fill:#ffffff;stroke:#ffffff;stroke-width:1.84083819;stroke-miterlimit:4;stroke-dasharray:none;stroke-opacity:1"
     x="27.308027"
     y="15.325333"
     width="4.231245"
     height="35.255928"
     id="rect9" />
  <path
     style="fill:#ffffff;stroke:#ffffff;stroke-width:1.33790517;stroke-miterlimit:4;stroke-dasharray:none;stroke-opacity:1"
     d="m 37.971932,37.989178 15.492501,0 c 0.534199,0 0.968235,-0.868594 0.968235,-1.937631 0,-1.069039 -0.434036,-1.93763 -0.968235,-1.93763 l -15.492501,0 c -0.534197,0 -0.968234,0.868591 -0.968234,1.93763 0,1.069037 0.434037,1.937631 0.968234,1.937631 z"
     id="path11"
     inkscape:connector-curvature="0" />
  <path
     style="fill:#ffffff;stroke:#ffffff;stroke-width:1.29870057;stroke-miterlimit:4;stroke-dasharray:none;stroke-opacity:1"
     d="m 37.954507,46.998716 15.527351,0 c 0.5354,0 0.970412,-0.816594 0.970412,-1.821637 0,-1.005044 -0.435012,-1.821639 -0.970412,-1.821639 l -15.527351,0 c -0.535398,0 -0.970411,0.816595 -0.970411,1.821639 0,1.005043 0.435013,1.821637 0.970411,1.821637 z"
     id="path13"
     inkscape:connector-curvature="0" />
  <rect
     style="fill:#ffffff;stroke:#ffffff;stroke-width:1.47091568;stroke-miterlimit:4;stroke-dasharray:none;stroke-opacity:1"
     x="44.489758"
     y="12.160089"
     width="8.7916603"
     height="10.833663"
     id="rect17" />
</svg>
